<svg xmlns="http://www.w3.org/2000/svg" version="1.1" width="1000px" height="1000px" style="shape-rendering:geometricPrecision; text-rendering:geometricPrecision; image-rendering:optimizeQuality; fill-rule:evenodd; clip-rule:evenodd" xmlns:xlink="http://www.w3.org/1999/xlink">
<g><path style="opacity:0.997" fill="#fefefe" d="M 370.5,320.5 C 369.18,365.997 368.68,411.663 369,457.5C 369.383,458.056 369.883,458.389 370.5,458.5C 370.584,492.415 370.417,526.415 370,560.5C 369.831,568.884 369.164,577.218 368,585.5C 358.443,603.683 344.61,607.849 326.5,598C 322.509,595.011 319.676,591.178 318,586.5C 316.839,493.987 316.006,401.487 315.5,309C 323.277,288.233 337.277,282.233 357.5,291C 366.97,298.757 371.304,308.59 370.5,320.5 Z"/></g>
<g><path style="opacity:0.991" fill="#fefefe" d="M 629.5,458.5 C 630.833,450.167 630.833,441.833 629.5,433.5C 629.774,400.824 629.441,368.158 628.5,335.5C 629.079,325.838 629.579,316.171 630,306.5C 633.351,295.817 640.517,289.317 651.5,287C 667.436,285.429 677.936,292.262 683,307.5C 683.667,397.5 683.667,487.5 683,577.5C 680.405,595.097 670.239,603.597 652.5,603C 641.943,600.776 634.776,594.609 631,584.5C 629.526,542.477 629.026,500.477 629.5,458.5 Z"/></g>
<g><path style="opacity:0.987" fill="#fefefe" d="M 732.5,342.5 C 734.663,343.72 736.83,343.72 739,342.5C 740.285,342.95 741.452,343.617 742.5,344.5C 751.388,345.084 757.888,350.417 762,360.5C 762.934,415.848 762.6,471.181 761,526.5C 751.794,543.791 738.294,548.291 720.5,540C 712.816,534.466 708.983,526.966 709,517.5C 708.333,467.5 708.333,417.5 709,367.5C 711.489,353.524 719.322,345.191 732.5,342.5 Z"/></g>
<g><path style="opacity:0.989" fill="#fefefe" d="M 244.5,352.5 C 245.167,352.5 245.5,352.167 245.5,351.5C 248.408,350.841 248.742,350.007 246.5,349C 253.26,343.809 260.927,342.142 269.5,344C 274.888,346.498 280.055,349.998 285,354.5C 287.478,357.789 289.144,361.456 290,365.5C 290.667,418.5 290.667,471.5 290,524.5C 285.349,540.246 274.849,547.079 258.5,545C 247.658,542.158 240.825,535.325 238,524.5C 237.814,477.155 237.314,429.821 236.5,382.5C 237.015,376.46 237.682,370.46 238.5,364.5C 236.978,362.844 237.311,361.677 239.5,361C 238.724,359.23 238.89,357.397 240,355.5C 241.632,354.472 243.132,353.472 244.5,352.5 Z"/></g>
<g><path style="opacity:0.039" fill="#ebebeb" d="M 245.5,351.5 C 244.833,351.5 244.5,351.833 244.5,352.5C 243.957,352.44 243.624,352.107 243.5,351.5C 244.257,350.227 244.923,350.227 245.5,351.5 Z"/></g>
<g><path style="opacity:0.459" fill="#c0524e" d="M 519.5,343.5 C 516.329,350.847 513.829,358.514 512,366.5C 511.617,367.056 511.117,367.389 510.5,367.5C 512.022,360.765 513.855,354.098 516,347.5C 516.66,345.676 517.827,344.343 519.5,343.5 Z"/></g>
<g><path style="opacity:0.533" fill="#c54848" d="M 542.5,370.5 C 540.013,362.784 538.013,354.784 536.5,346.5C 531.444,344.254 526.111,342.921 520.5,342.5C 531.067,338.704 537.567,342.371 540,353.5C 541.269,359.111 542.102,364.778 542.5,370.5 Z"/></g>
<g><path style="opacity:1" fill="#ce4744" d="M 454.5,389.5 C 452.804,389.315 451.471,388.481 450.5,387C 447.5,386.333 444.5,386.333 441.5,387C 440.057,390.944 437.391,393.777 433.5,395.5C 429.748,403.342 426.248,411.342 423,419.5C 422.292,420.381 421.458,421.047 420.5,421.5C 424.889,409.556 430.222,398.056 436.5,387C 440.555,384.66 444.889,383.993 449.5,385C 451.66,385.996 453.327,387.496 454.5,389.5 Z"/></g>
<g><path style="opacity:1" fill="#cd4e46" d="M 510.5,368.5 C 508.982,376.792 507.649,385.125 506.5,393.5C 504.868,393.825 503.868,394.825 503.5,396.5C 502.195,401.422 500.529,406.089 498.5,410.5C 502.209,396.318 506.209,382.318 510.5,368.5 Z"/></g>
<g><path style="opacity:0.745" fill="#c94e49" d="M 542.5,370.5 C 544.655,378.948 546.322,387.615 547.5,396.5C 546.073,394.852 545.24,392.852 545,390.5C 543.63,383.895 542.797,377.228 542.5,370.5 Z"/></g>
<g><path style="opacity:0.301" fill="#e4dcdc" d="M 370.5,320.5 C 370.5,358.5 370.5,396.5 370.5,434.5C 369.216,442.371 369.216,450.371 370.5,458.5C 369.883,458.389 369.383,458.056 369,457.5C 368.68,411.663 369.18,365.997 370.5,320.5 Z"/></g>
<g><path style="opacity:0.992" fill="#c6443e" d="M 550.5,412.5 C 553.609,425.962 556.276,439.629 558.5,453.5C 557.203,451.629 556.203,449.629 555.5,447.5C 554.218,442.099 552.885,436.599 551.5,431C 551.77,429.486 552.103,427.986 552.5,426.5C 550.886,421.974 550.219,417.308 550.5,412.5 Z"/></g>
<g><path style="opacity:0.078" fill="#af4a3f" d="M 575.5,434.5 C 586.988,433.505 598.655,433.172 610.5,433.5C 609.626,434.525 608.459,435.192 607,435.5C 596.54,434.535 586.04,434.201 575.5,434.5 Z"/></g>
<g><path style="opacity:1" fill="#d03f37" d="M 610.5,433.5 C 611.167,433.5 611.5,433.833 611.5,434.5C 616.233,435.19 621.066,435.856 626,436.5C 626.81,443.082 626.643,449.582 625.5,456C 611.26,457.3 596.927,457.967 582.5,458C 581.209,459.292 581.209,460.458 582.5,461.5C 580.011,467.656 577.344,473.656 574.5,479.5C 576.564,472.14 578.731,464.807 581,457.5C 581.75,456.874 582.584,456.374 583.5,456C 596.829,455.5 610.163,455.333 623.5,455.5C 624.728,449.289 624.728,443.122 623.5,437C 606.167,436.333 588.833,436.333 571.5,437C 568.309,438.869 567.642,441.369 569.5,444.5C 568.5,444.5 567.5,444.5 566.5,444.5C 566.662,446.527 566.495,448.527 566,450.5C 563.178,453.155 560.011,455.155 556.5,456.5C 555.841,453.545 555.508,450.545 555.5,447.5C 556.203,449.629 557.203,451.629 558.5,453.5C 560.281,449.256 562.115,444.923 564,440.5C 566.691,436.238 570.524,434.238 575.5,434.5C 586.04,434.201 596.54,434.535 607,435.5C 608.459,435.192 609.626,434.525 610.5,433.5 Z"/></g>
<g><path style="opacity:1" fill="#cd443e" d="M 420.5,421.5 C 419.498,425.84 418.331,430.174 417,434.5C 416.333,435.833 415.333,436.833 414,437.5C 400.913,436.511 387.746,436.177 374.5,436.5C 374.189,443.09 374.522,449.59 375.5,456C 392.497,456.5 409.497,456.667 426.5,456.5C 429.962,450.089 433.295,443.422 436.5,436.5C 438.236,432.363 440.736,431.696 444,434.5C 444.615,442.182 446.115,449.682 448.5,457C 448.316,458.376 447.649,459.209 446.5,459.5C 444.985,451.439 443.152,443.439 441,435.5C 438.147,441.047 435.481,446.713 433,452.5C 431.114,455.242 428.614,456.909 425.5,457.5C 408.154,457.833 390.821,457.5 373.5,456.5C 371.214,449.29 370.88,441.956 372.5,434.5C 386.339,433.833 400.339,433.167 414.5,432.5C 416.274,428.611 418.274,424.945 420.5,421.5 Z"/></g>
<g><path style="opacity:0.384" fill="#b07873" d="M 629.5,433.5 C 630.833,441.833 630.833,450.167 629.5,458.5C 628.5,458.5 627.5,458.5 626.5,458.5C 628.759,450.649 629.092,442.649 627.5,434.5C 628.167,434.167 628.833,433.833 629.5,433.5 Z"/></g>
<g><path style="opacity:0.271" fill="#a95755" d="M 370.5,434.5 C 371.167,434.5 371.833,434.5 372.5,434.5C 370.88,441.956 371.214,449.29 373.5,456.5C 390.821,457.5 408.154,457.833 425.5,457.5C 407.341,458.497 389.008,458.83 370.5,458.5C 369.216,450.371 369.216,442.371 370.5,434.5 Z"/></g>
<g><path style="opacity:0.09" fill="#ab4b47" d="M 611.5,434.5 C 616.833,434.5 622.167,434.5 627.5,434.5C 629.092,442.649 628.759,450.649 626.5,458.5C 612.151,458.167 597.818,458.501 583.5,459.5C 583.137,460.183 582.804,460.85 582.5,461.5C 581.209,460.458 581.209,459.292 582.5,458C 596.927,457.967 611.26,457.3 625.5,456C 626.643,449.582 626.81,443.082 626,436.5C 621.066,435.856 616.233,435.19 611.5,434.5 Z"/></g>
<g><path style="opacity:0.506" fill="#c85051" d="M 448.5,464.5 C 449.117,464.611 449.617,464.944 450,465.5C 450.859,471.935 452.192,478.268 454,484.5C 454.78,486.387 454.613,488.054 453.5,489.5C 451.674,481.198 450.008,472.864 448.5,464.5 Z"/></g>
<g><path style="opacity:1" fill="#ed4035" d="M 520.5,342.5 C 526.111,342.921 531.444,344.254 536.5,346.5C 538.013,354.784 540.013,362.784 542.5,370.5C 542.797,377.228 543.63,383.895 545,390.5C 545.24,392.852 546.073,394.852 547.5,396.5C 548.926,401.721 549.926,407.055 550.5,412.5C 550.219,417.308 550.886,421.974 552.5,426.5C 552.103,427.986 551.77,429.486 551.5,431C 552.885,436.599 554.218,442.099 555.5,447.5C 555.508,450.545 555.841,453.545 556.5,456.5C 560.011,455.155 563.178,453.155 566,450.5C 566.495,448.527 566.662,446.527 566.5,444.5C 567.5,444.5 568.5,444.5 569.5,444.5C 567.642,441.369 568.309,438.869 571.5,437C 588.833,436.333 606.167,436.333 623.5,437C 624.728,443.122 624.728,449.289 623.5,455.5C 610.163,455.333 596.829,455.5 583.5,456C 582.584,456.374 581.75,456.874 581,457.5C 578.731,464.807 576.564,472.14 574.5,479.5C 571.91,481.37 569.743,483.703 568,486.5C 567.667,489.5 567.333,492.5 567,495.5C 565.416,496.861 563.582,497.528 561.5,497.5C 561.768,500.119 561.435,502.619 560.5,505C 557.243,506.043 553.91,506.543 550.5,506.5C 551.826,503.999 552.326,501.332 552,498.5C 550.936,502.295 548.436,503.461 544.5,502C 543.563,499.051 542.563,496.217 541.5,493.5C 540.691,491.972 540.024,490.306 539.5,488.5C 540.641,485.36 540.808,482.027 540,478.5C 538.127,470.928 536.794,463.262 536,455.5C 535.617,454.944 535.117,454.611 534.5,454.5C 534.465,448.409 533.799,442.409 532.5,436.5C 532.004,431.743 532.67,427.243 534.5,423C 533.882,420.026 532.882,417.192 531.5,414.5C 532.325,413.614 533.325,413.281 534.5,413.5C 534.5,412.5 534.5,411.5 534.5,410.5C 533.325,410.719 532.325,410.386 531.5,409.5C 532.428,408.232 532.595,406.899 532,405.5C 531.667,406.167 531.333,406.833 531,407.5C 530.556,404.226 529.056,401.56 526.5,399.5C 525.673,401.162 524.507,402.495 523,403.5C 522.508,402.451 522.674,401.451 523.5,400.5C 522.726,399.289 521.893,399.289 521,400.5C 518.731,398.161 517.231,398.828 516.5,402.5C 515.167,403.833 513.833,403.833 512.5,402.5C 511.614,405.116 512.28,407.449 514.5,409.5C 516.738,403.346 519.071,403.179 521.5,409C 520.451,409.492 519.451,409.326 518.5,408.5C 517.433,411.297 517.433,414.131 518.5,417C 516.73,421.599 516.063,426.432 516.5,431.5C 515.07,431.421 513.736,431.754 512.5,432.5C 510.516,441.404 509.016,450.404 508,459.5C 505.907,462.044 504.907,465.044 505,468.5C 504.167,469.5 503.333,470.5 502.5,471.5C 500.233,468.971 498.899,465.971 498.5,462.5C 498.167,463.167 497.833,463.833 497.5,464.5C 498.847,470.198 500.18,475.864 501.5,481.5C 501.02,486.108 500.02,490.608 498.5,495C 498.528,496.07 498.861,496.903 499.5,497.5C 499.5,498.167 499.167,498.5 498.5,498.5C 497.883,498.611 497.383,498.944 497,499.5C 494.438,507.558 491.938,515.558 489.5,523.5C 488.518,522.859 487.518,522.193 486.5,521.5C 485.808,522.025 485.308,522.692 485,523.5C 485.825,528.164 485.659,532.83 484.5,537.5C 481.5,536.833 478.5,536.167 475.5,535.5C 475.5,536.833 475.5,538.167 475.5,539.5C 473.208,539.756 471.041,539.423 469,538.5C 467.89,534.749 466.724,531.083 465.5,527.5C 464.5,527.5 463.5,527.5 462.5,527.5C 462.443,526.391 462.11,525.391 461.5,524.5C 462.641,521.36 462.808,518.027 462,514.5C 460.669,506.394 459.169,498.394 457.5,490.5C 456.5,490.5 455.5,490.5 454.5,490.5C 453.833,490.5 453.5,490.167 453.5,489.5C 454.613,488.054 454.78,486.387 454,484.5C 452.192,478.268 450.859,471.935 450,465.5C 449.617,464.944 449.117,464.611 448.5,464.5C 447.691,462.972 447.024,461.306 446.5,459.5C 447.649,459.209 448.316,458.376 448.5,457C 446.115,449.682 444.615,442.182 444,434.5C 440.736,431.696 438.236,432.363 436.5,436.5C 433.295,443.422 429.962,450.089 426.5,456.5C 409.497,456.667 392.497,456.5 375.5,456C 374.522,449.59 374.189,443.09 374.5,436.5C 387.746,436.177 400.913,436.511 414,437.5C 415.333,436.833 416.333,435.833 417,434.5C 418.331,430.174 419.498,425.84 420.5,421.5C 421.458,421.047 422.292,420.381 423,419.5C 426.248,411.342 429.748,403.342 433.5,395.5C 437.391,393.777 440.057,390.944 441.5,387C 444.5,386.333 447.5,386.333 450.5,387C 451.471,388.481 452.804,389.315 454.5,389.5C 456.68,392.381 457.68,395.714 457.5,399.5C 460.959,414.99 463.792,430.657 466,446.5C 466.667,447.167 467.333,447.833 468,448.5C 469.725,454.013 470.725,459.68 471,465.5C 471.417,466.756 472.25,467.423 473.5,467.5C 474.892,472.083 476.392,476.749 478,481.5C 478.232,480.263 478.732,479.263 479.5,478.5C 481.172,475.802 482.339,472.802 483,469.5C 483.359,472.544 484.026,472.878 485,470.5C 486.653,462.893 487.82,455.226 488.5,447.5C 489.449,446.077 490.449,444.577 491.5,443C 493.401,435.623 495.734,428.456 498.5,421.5C 499.744,419.362 501.244,417.362 503,415.5C 504.388,407.959 505.555,400.626 506.5,393.5C 507.649,385.125 508.982,376.792 510.5,368.5C 510.5,368.167 510.5,367.833 510.5,367.5C 511.117,367.389 511.617,367.056 512,366.5C 513.829,358.514 516.329,350.847 519.5,343.5C 519.5,342.833 519.833,342.5 520.5,342.5 Z"/></g>
<g><path style="opacity:1" fill="#d5433e" d="M 488.5,447.5 C 487.82,455.226 486.653,462.893 485,470.5C 484.026,472.878 483.359,472.544 483,469.5C 482.339,472.802 481.172,475.802 479.5,478.5C 481.524,467.773 484.524,457.44 488.5,447.5 Z"/></g>
<g><path style="opacity:0.639" fill="#c75249" d="M 534.5,454.5 C 535.117,454.611 535.617,454.944 536,455.5C 536.794,463.262 538.127,470.928 540,478.5C 540.808,482.027 540.641,485.36 539.5,488.5C 537.832,477.161 536.166,465.827 534.5,454.5 Z"/></g>
<g><path style="opacity:0.42" fill="#c94e49" d="M 529.5,428.5 C 530.5,431.167 531.5,433.833 532.5,436.5C 533.799,442.409 534.465,448.409 534.5,454.5C 532.234,446.075 530.567,437.408 529.5,428.5 Z"/></g>
<g><path style="opacity:1" fill="#cb4741" d="M 457.5,399.5 C 463.751,421.845 469.085,444.512 473.5,467.5C 472.25,467.423 471.417,466.756 471,465.5C 470.725,459.68 469.725,454.013 468,448.5C 467.333,447.833 466.667,447.167 466,446.5C 463.792,430.657 460.959,414.99 457.5,399.5 Z"/></g>
<g><path style="opacity:1" fill="#dd423a" d="M 506.5,393.5 C 505.555,400.626 504.388,407.959 503,415.5C 501.244,417.362 499.744,419.362 498.5,421.5C 495.734,428.456 493.401,435.623 491.5,443C 490.449,444.577 489.449,446.077 488.5,447.5C 491.057,434.939 494.39,422.606 498.5,410.5C 500.529,406.089 502.195,401.422 503.5,396.5C 503.868,394.825 504.868,393.825 506.5,393.5 Z"/></g>
<g><path style="opacity:1" fill="#e14338" d="M 532.5,436.5 C 531.5,433.833 530.5,431.167 529.5,428.5C 527.959,421.979 526.459,415.312 525,408.5C 524.667,408.833 524.333,409.167 524,409.5C 515.731,438.807 507.564,468.141 499.5,497.5C 498.861,496.903 498.528,496.07 498.5,495C 500.02,490.608 501.02,486.108 501.5,481.5C 500.18,475.864 498.847,470.198 497.5,464.5C 497.833,463.833 498.167,463.167 498.5,462.5C 498.899,465.971 500.233,468.971 502.5,471.5C 503.333,470.5 504.167,469.5 505,468.5C 504.907,465.044 505.907,462.044 508,459.5C 509.016,450.404 510.516,441.404 512.5,432.5C 513.736,431.754 515.07,431.421 516.5,431.5C 516.063,426.432 516.73,421.599 518.5,417C 517.433,414.131 517.433,411.297 518.5,408.5C 519.451,409.326 520.451,409.492 521.5,409C 519.071,403.179 516.738,403.346 514.5,409.5C 512.28,407.449 511.614,405.116 512.5,402.5C 513.833,403.833 515.167,403.833 516.5,402.5C 517.231,398.828 518.731,398.161 521,400.5C 521.893,399.289 522.726,399.289 523.5,400.5C 522.674,401.451 522.508,402.451 523,403.5C 524.507,402.495 525.673,401.162 526.5,399.5C 529.056,401.56 530.556,404.226 531,407.5C 531.333,406.833 531.667,406.167 532,405.5C 532.595,406.899 532.428,408.232 531.5,409.5C 532.325,410.386 533.325,410.719 534.5,410.5C 534.5,411.5 534.5,412.5 534.5,413.5C 533.325,413.281 532.325,413.614 531.5,414.5C 532.882,417.192 533.882,420.026 534.5,423C 532.67,427.243 532.004,431.743 532.5,436.5 Z"/></g>
<g><path style="opacity:0.937" fill="#c9473b" d="M 454.5,490.5 C 455.5,490.5 456.5,490.5 457.5,490.5C 459.169,498.394 460.669,506.394 462,514.5C 462.808,518.027 462.641,521.36 461.5,524.5C 459.421,513.103 457.087,501.77 454.5,490.5 Z"/></g>
<g><path style="opacity:1" fill="#d8413c" d="M 574.5,479.5 C 571.499,488.331 567.999,496.997 564,505.5C 555.926,512.57 548.926,511.57 543,502.5C 542.047,499.568 541.547,496.568 541.5,493.5C 542.563,496.217 543.563,499.051 544.5,502C 548.436,503.461 550.936,502.295 552,498.5C 552.326,501.332 551.826,503.999 550.5,506.5C 553.91,506.543 557.243,506.043 560.5,505C 561.435,502.619 561.768,500.119 561.5,497.5C 563.582,497.528 565.416,496.861 567,495.5C 567.333,492.5 567.667,489.5 568,486.5C 569.743,483.703 571.91,481.37 574.5,479.5 Z"/></g>
<g><path style="opacity:0.569" fill="#c34945" d="M 498.5,498.5 C 495.608,510.416 492.275,522.083 488.5,533.5C 488.342,530.098 488.676,526.764 489.5,523.5C 491.938,515.558 494.438,507.558 497,499.5C 497.383,498.944 497.883,498.611 498.5,498.5 Z"/></g>
<g><path style="opacity:1" fill="#dc413a" d="M 489.5,523.5 C 488.676,526.764 488.342,530.098 488.5,533.5C 486.915,534.474 485.915,535.974 485.5,538C 482.475,538.154 480.809,539.654 480.5,542.5C 477.5,542.5 474.5,542.5 471.5,542.5C 469.629,542.141 468.129,541.141 467,539.5C 464.635,535.779 463.135,531.779 462.5,527.5C 463.5,527.5 464.5,527.5 465.5,527.5C 466.724,531.083 467.89,534.749 469,538.5C 471.041,539.423 473.208,539.756 475.5,539.5C 475.5,538.167 475.5,536.833 475.5,535.5C 478.5,536.167 481.5,536.833 484.5,537.5C 485.659,532.83 485.825,528.164 485,523.5C 485.308,522.692 485.808,522.025 486.5,521.5C 487.518,522.193 488.518,522.859 489.5,523.5 Z"/></g>
<g><path style="opacity:1" fill="#bd4a46" d="M 488.5,533.5 C 486.002,542.582 480.335,545.582 471.5,542.5C 474.5,542.5 477.5,542.5 480.5,542.5C 480.809,539.654 482.475,538.154 485.5,538C 485.915,535.974 486.915,534.474 488.5,533.5 Z"/></g>
<g><path style="opacity:0.963" fill="#fdfdfd" d="M 423.5,616.5 C 440.15,614.486 448.15,621.819 447.5,638.5C 442.167,638.5 436.833,638.5 431.5,638.5C 431.663,636.143 431.497,633.81 431,631.5C 429.667,630.167 428.333,630.167 427,631.5C 426.333,633.5 426.333,635.5 427,637.5C 435.174,644.332 441.841,652.332 447,661.5C 448.375,669.857 447.375,677.857 444,685.5C 435.871,692.512 427.038,693.346 417.5,688C 414.485,685.137 412.651,681.637 412,677.5C 411.501,672.511 411.334,667.511 411.5,662.5C 416.179,662.334 420.845,662.501 425.5,663C 426.3,667.08 426.8,671.247 427,675.5C 428.396,677.527 430.062,677.86 432,676.5C 433.007,671.889 432.34,667.555 430,663.5C 422.063,657.244 416.063,649.577 412,640.5C 409.754,629.33 413.587,621.33 423.5,616.5 Z"/></g>
<g><path style="opacity:0.973" fill="#fdfdfd" d="M 539.5,616.5 C 549.665,615 557.165,618.666 562,627.5C 562.5,633.825 562.666,640.158 562.5,646.5C 557.5,646.5 552.5,646.5 547.5,646.5C 547.666,641.821 547.499,637.155 547,632.5C 545.847,630.503 544.347,630.17 542.5,631.5C 541.35,646.122 541.184,660.788 542,675.5C 543.667,678.167 545.333,678.167 547,675.5C 547.499,669.843 547.666,664.176 547.5,658.5C 552.762,658.195 557.928,658.529 563,659.5C 564.469,669.228 562.969,678.394 558.5,687C 550.056,692.51 541.389,692.843 532.5,688C 529.769,685.374 527.936,682.207 527,678.5C 526.333,662.5 526.333,646.5 527,630.5C 528.283,623.06 532.449,618.393 539.5,616.5 Z"/></g>
<g><path style="opacity:0.976" fill="#fefefe" d="M 449.5,617.5 C 460.5,617.5 471.5,617.5 482.5,617.5C 482.5,622.167 482.5,626.833 482.5,631.5C 479.5,631.5 476.5,631.5 473.5,631.5C 473.5,651.167 473.5,670.833 473.5,690.5C 468.5,690.5 463.5,690.5 458.5,690.5C 458.667,671.164 458.5,651.83 458,632.5C 455.281,631.556 452.448,631.223 449.5,631.5C 449.5,626.833 449.5,622.167 449.5,617.5 Z"/></g>
<g><path style="opacity:0.978" fill="#fdfdfd" d="M 490.5,617.5 C 499.167,617.5 507.833,617.5 516.5,617.5C 518.343,641.761 520.676,665.928 523.5,690C 518.511,690.499 513.511,690.666 508.5,690.5C 508.276,686.821 507.942,683.154 507.5,679.5C 504.833,679.5 502.167,679.5 499.5,679.5C 499.058,683.154 498.724,686.821 498.5,690.5C 493.5,690.5 488.5,690.5 483.5,690.5C 486.133,666.205 488.466,641.871 490.5,617.5 Z M 502.5,632.5 C 504.364,643.633 505.698,654.967 506.5,666.5C 504.5,666.5 502.5,666.5 500.5,666.5C 501.546,655.192 502.212,643.859 502.5,632.5 Z"/></g>
<g><path style="opacity:0.991" fill="#fdfdfd" d="M 567.5,617.5 C 572.5,617.5 577.5,617.5 582.5,617.5C 582.334,625.174 582.5,632.841 583,640.5C 584.667,633.167 586.333,625.833 588,618.5C 593.072,617.529 598.238,617.195 603.5,617.5C 601.026,628.699 598.36,639.866 595.5,651C 598.757,663.86 602.09,676.694 605.5,689.5C 600.167,690.833 594.833,690.833 589.5,689.5C 587.271,680.192 585.105,670.859 583,661.5C 582.5,671.161 582.334,680.828 582.5,690.5C 577.5,690.5 572.5,690.5 567.5,690.5C 567.5,666.167 567.5,641.833 567.5,617.5 Z"/></g>
<g><path style="opacity:1" fill="#e64037" d="M 533.5,725.5 C 533.5,729.833 533.5,734.167 533.5,738.5C 537.634,739.485 541.968,739.818 546.5,739.5C 546.824,743.555 546.491,747.555 545.5,751.5C 542.242,752.417 538.909,752.751 535.5,752.5C 534.883,752.611 534.383,752.944 534,753.5C 533.501,758.489 533.334,763.489 533.5,768.5C 538.544,768.173 543.544,768.506 548.5,769.5C 549.55,770.429 549.55,771.095 548.5,771.5C 547.518,774.962 547.185,778.629 547.5,782.5C 537.833,782.5 528.167,782.5 518.5,782.5C 518.5,758.833 518.5,735.167 518.5,711.5C 527.833,711.5 537.167,711.5 546.5,711.5C 546.5,715.833 546.5,720.167 546.5,724.5C 541.968,724.182 537.634,724.515 533.5,725.5 Z"/></g>
<g><path style="opacity:1" fill="#cc4844" d="M 624.5,719.5 C 622.952,719.179 622.285,718.179 622.5,716.5C 617.269,714.572 612.103,712.572 607,710.5C 604.189,711.287 601.356,712.12 598.5,713C 596.208,715.116 594.208,717.282 592.5,719.5C 595.176,712.151 600.51,708.818 608.5,709.5C 616.49,708.818 621.824,712.151 624.5,719.5 Z"/></g>
<g><path style="opacity:1" fill="#c64a44" d="M 467.5,710.5 C 469.167,710.5 470.833,710.5 472.5,710.5C 473.103,715.619 472.436,720.285 470.5,724.5C 471.195,719.284 470.195,714.618 467.5,710.5 Z"/></g>
<g><path style="opacity:1" fill="#e64037" d="M 392.5,710.5 C 401.167,710.5 409.833,710.5 418.5,710.5C 418.5,715.5 418.5,720.5 418.5,725.5C 413.833,725.5 409.167,725.5 404.5,725.5C 403.518,728.962 403.185,732.629 403.5,736.5C 407.833,736.5 412.167,736.5 416.5,736.5C 416.5,740.5 416.5,744.5 416.5,748.5C 413.15,748.335 409.817,748.502 406.5,749C 405.944,749.383 405.611,749.883 405.5,750.5C 404.833,750.5 404.5,750.833 404.5,751.5C 403.506,761.653 403.172,771.986 403.5,782.5C 398.833,782.5 394.167,782.5 389.5,782.5C 389.5,758.833 389.5,735.167 389.5,711.5C 390.791,711.737 391.791,711.404 392.5,710.5 Z"/></g>
<g><path style="opacity:1" fill="#e73f36" d="M 443.5,710.5 C 451.5,710.5 459.5,710.5 467.5,710.5C 470.195,714.618 471.195,719.284 470.5,724.5C 469.368,725.354 468.035,725.354 466.5,724.5C 465.432,723.566 464.099,723.232 462.5,723.5C 462.5,743.167 462.5,762.833 462.5,782.5C 458.5,782.5 454.5,782.5 450.5,782.5C 450.667,763.497 450.5,744.497 450,725.5C 447.196,723.656 444.03,722.989 440.5,723.5C 440.5,719.5 440.5,715.5 440.5,711.5C 441.791,711.737 442.791,711.404 443.5,710.5 Z"/></g>
<g><path style="opacity:0.224" fill="#b24843" d="M 511.5,783.5 C 511.5,759.5 511.5,735.5 511.5,711.5C 507.167,711.5 502.833,711.5 498.5,711.5C 498.824,718.354 498.491,725.021 497.5,731.5C 497.5,724.5 497.5,717.5 497.5,710.5C 502.5,710.5 507.5,710.5 512.5,710.5C 512.831,735.006 512.498,759.339 511.5,783.5 Z"/></g>
<g><path style="opacity:1" fill="#e34138" d="M 551.5,770.5 C 552.486,766.03 552.819,761.363 552.5,756.5C 556.5,756.5 560.5,756.5 564.5,756.5C 564.335,760.182 564.501,763.848 565,767.5C 566.608,771.354 569.274,772.354 573,770.5C 573.81,765.743 573.476,761.076 572,756.5C 571.329,755.748 570.496,755.414 569.5,755.5C 562.024,749.859 556.191,742.859 552,734.5C 550.538,711.969 560.372,704.803 581.5,713C 586.187,718.233 588.187,724.4 587.5,731.5C 582.167,731.5 576.833,731.5 571.5,731.5C 571.663,729.143 571.497,726.81 571,724.5C 569.667,723.167 568.333,723.167 567,724.5C 566.294,726.971 566.627,729.305 568,731.5C 573,736.5 578,741.5 583,746.5C 589.8,758.005 589.633,769.505 582.5,781C 574.672,785.257 566.672,785.59 558.5,782C 555.012,778.856 552.679,775.022 551.5,770.5 Z"/></g>
<g><path style="opacity:0.953" fill="#c14942" d="M 592.5,719.5 C 591.764,727.187 592.764,734.52 595.5,741.5C 590.94,736.394 589.44,730.394 591,723.5C 591.21,721.942 591.71,720.609 592.5,719.5 Z"/></g>
<g><path style="opacity:0.987" fill="#c04a47" d="M 625.5,722.5 C 626.477,725.287 626.81,728.287 626.5,731.5C 621.5,731.5 616.5,731.5 611.5,731.5C 611.717,728.579 611.051,725.913 609.5,723.5C 610.75,723.577 611.583,724.244 612,725.5C 612.494,727.134 612.66,728.801 612.5,730.5C 616.833,730.5 621.167,730.5 625.5,730.5C 625.5,727.833 625.5,725.167 625.5,722.5 Z"/></g>
<g><path style="opacity:1" fill="#e54037" d="M 624.5,719.5 C 625.404,720.209 625.737,721.209 625.5,722.5C 625.5,725.167 625.5,727.833 625.5,730.5C 621.167,730.5 616.833,730.5 612.5,730.5C 612.66,728.801 612.494,727.134 612,725.5C 611.583,724.244 610.75,723.577 609.5,723.5C 605.775,723.78 604.608,725.78 606,729.5C 611.357,735.855 617.023,741.855 623,747.5C 627.094,753.829 628.261,760.496 626.5,767.5C 625.183,771.114 623.849,774.781 622.5,778.5C 619.412,778.197 617.746,779.53 617.5,782.5C 612.456,782.827 607.456,782.494 602.5,781.5C 602.291,780.914 601.957,780.414 601.5,780C 599.527,779.505 597.527,779.338 595.5,779.5C 594.987,773.642 595.654,767.975 597.5,762.5C 596.132,761.406 594.965,761.74 594,763.5C 593.333,762.167 593.333,760.833 594,759.5C 597.504,759.104 601.004,758.77 604.5,758.5C 603.92,762.649 604.586,766.316 606.5,769.5C 608.01,770.728 609.51,770.728 611,769.5C 611.667,766.167 611.667,762.833 611,759.5C 605.601,753.608 600.434,747.608 595.5,741.5C 592.764,734.52 591.764,727.187 592.5,719.5C 594.208,717.282 596.208,715.116 598.5,713C 601.356,712.12 604.189,711.287 607,710.5C 612.103,712.572 617.269,714.572 622.5,716.5C 622.285,718.179 622.952,719.179 624.5,719.5 Z"/></g>
<g><path style="opacity:1" fill="#e64037" d="M 423.5,710.5 C 427.5,710.5 431.5,710.5 435.5,710.5C 435.5,734.5 435.5,758.5 435.5,782.5C 431.167,782.5 426.833,782.5 422.5,782.5C 422.5,781.833 422.5,781.167 422.5,780.5C 422.177,757.092 422.511,733.758 423.5,710.5 Z"/></g>
<g><path style="opacity:0.92" fill="#b6504a" d="M 435.5,710.5 C 436.498,734.661 436.831,758.994 436.5,783.5C 431.637,783.819 426.97,783.486 422.5,782.5C 426.833,782.5 431.167,782.5 435.5,782.5C 435.5,758.5 435.5,734.5 435.5,710.5 Z"/></g>
<g><path style="opacity:0.594" fill="#c84842" d="M 443.5,710.5 C 442.791,711.404 441.791,711.737 440.5,711.5C 440.5,715.5 440.5,719.5 440.5,723.5C 444.03,722.989 447.196,723.656 450,725.5C 450.5,744.497 450.667,763.497 450.5,782.5C 454.5,782.5 458.5,782.5 462.5,782.5C 462.5,762.833 462.5,743.167 462.5,723.5C 464.099,723.232 465.432,723.566 466.5,724.5C 465.5,724.5 464.5,724.5 463.5,724.5C 463.5,744.167 463.5,763.833 463.5,783.5C 458.5,783.5 453.5,783.5 448.5,783.5C 448.667,764.164 448.5,744.83 448,725.5C 445.281,724.556 442.448,724.223 439.5,724.5C 439.5,719.833 439.5,715.167 439.5,710.5C 440.833,710.5 442.167,710.5 443.5,710.5 Z"/></g>
<g><path style="opacity:1" fill="#e54037" d="M 491.5,712.5 C 493.646,721.394 495.479,730.394 497,739.5C 497.497,736.854 497.664,734.187 497.5,731.5C 498.491,725.021 498.824,718.354 498.5,711.5C 502.833,711.5 507.167,711.5 511.5,711.5C 511.5,735.5 511.5,759.5 511.5,783.5C 506.57,783.803 501.737,783.469 497,782.5C 494.842,772.548 493.008,762.548 491.5,752.5C 491.44,751.957 491.107,751.624 490.5,751.5C 489.501,761.812 489.168,772.145 489.5,782.5C 485.167,782.5 480.833,782.5 476.5,782.5C 476.5,758.833 476.5,735.167 476.5,711.5C 481.595,711.221 486.595,711.555 491.5,712.5 Z"/></g>
<g><path style="opacity:0.284" fill="#b94841" d="M 533.5,738.5 C 538.167,738.5 542.833,738.5 547.5,738.5C 547.827,743.214 547.493,747.88 546.5,752.5C 542.701,753.793 539.034,753.793 535.5,752.5C 538.909,752.751 542.242,752.417 545.5,751.5C 546.491,747.555 546.824,743.555 546.5,739.5C 541.968,739.818 537.634,739.485 533.5,738.5 Z"/></g>
<g><path style="opacity:1" fill="#c44944" d="M 404.5,725.5 C 404.5,728.833 404.5,732.167 404.5,735.5C 409.099,735.2 413.599,735.533 418,736.5C 418.499,741.155 418.666,745.821 418.5,750.5C 414.167,750.5 409.833,750.5 405.5,750.5C 405.611,749.883 405.944,749.383 406.5,749C 409.817,748.502 413.15,748.335 416.5,748.5C 416.5,744.5 416.5,740.5 416.5,736.5C 412.167,736.5 407.833,736.5 403.5,736.5C 403.185,732.629 403.518,728.962 404.5,725.5 Z"/></g>
<g><path style="opacity:0.09" fill="#bb453e" d="M 533.5,725.5 C 537.634,724.515 541.968,724.182 546.5,724.5C 546.5,720.167 546.5,715.833 546.5,711.5C 537.167,711.5 527.833,711.5 518.5,711.5C 518.5,735.167 518.5,758.833 518.5,782.5C 528.167,782.5 537.833,782.5 547.5,782.5C 547.185,778.629 547.518,774.962 548.5,771.5C 548.5,775.5 548.5,779.5 548.5,783.5C 538.167,783.5 527.833,783.5 517.5,783.5C 517.5,759.167 517.5,734.833 517.5,710.5C 527.5,710.5 537.5,710.5 547.5,710.5C 547.5,715.5 547.5,720.5 547.5,725.5C 542.833,725.5 538.167,725.5 533.5,725.5 Z"/></g>
<g><path style="opacity:0.125" fill="#b95049" d="M 392.5,710.5 C 391.791,711.404 390.791,711.737 389.5,711.5C 389.5,735.167 389.5,758.833 389.5,782.5C 394.167,782.5 398.833,782.5 403.5,782.5C 403.172,771.986 403.506,761.653 404.5,751.5C 404.5,762.167 404.5,772.833 404.5,783.5C 399.167,783.5 393.833,783.5 388.5,783.5C 388.5,759.167 388.5,734.833 388.5,710.5C 389.833,710.5 391.167,710.5 392.5,710.5 Z"/></g>
<g><path style="opacity:0.063" fill="#ba413d" d="M 423.5,710.5 C 422.511,733.758 422.177,757.092 422.5,780.5C 421.833,769.005 421.5,757.338 421.5,745.5C 421.501,733.48 422.168,721.814 423.5,710.5 Z"/></g>
<g><path style="opacity:1" fill="#d9443b" d="M 606.5,769.5 C 604.586,766.316 603.92,762.649 604.5,758.5C 601.004,758.77 597.504,759.104 594,759.5C 593.333,760.833 593.333,762.167 594,763.5C 594.965,761.74 596.132,761.406 597.5,762.5C 595.654,767.975 594.987,773.642 595.5,779.5C 592.962,776.755 591.462,773.422 591,769.5C 590.501,764.845 590.334,760.179 590.5,755.5C 595.5,755.5 600.5,755.5 605.5,755.5C 605.353,760.214 605.686,764.881 606.5,769.5 Z"/></g>
<g><path style="opacity:0.466" fill="#be4942" d="M 491.5,712.5 C 486.595,711.555 481.595,711.221 476.5,711.5C 476.5,735.167 476.5,758.833 476.5,782.5C 480.833,782.5 485.167,782.5 489.5,782.5C 489.168,772.145 489.501,761.812 490.5,751.5C 491.107,751.624 491.44,751.957 491.5,752.5C 490.506,762.653 490.172,772.986 490.5,783.5C 485.5,783.5 480.5,783.5 475.5,783.5C 475.5,759.167 475.5,734.833 475.5,710.5C 481.271,709.887 486.604,710.554 491.5,712.5 Z"/></g>
<g><path style="opacity:1" fill="#c14742" d="M 569.5,755.5 C 570.496,755.414 571.329,755.748 572,756.5C 573.476,761.076 573.81,765.743 573,770.5C 569.274,772.354 566.608,771.354 565,767.5C 564.501,763.848 564.335,760.182 564.5,756.5C 560.5,756.5 556.5,756.5 552.5,756.5C 552.819,761.363 552.486,766.03 551.5,770.5C 551.5,765.5 551.5,760.5 551.5,755.5C 556.5,755.5 561.5,755.5 566.5,755.5C 566.334,759.846 566.501,764.179 567,768.5C 571.209,771.633 573.042,770.466 572.5,765C 572.496,761.498 571.496,758.331 569.5,755.5 Z"/></g>
<g><path style="opacity:1" fill="#cc4641" d="M 626.5,767.5 C 626.587,774.161 623.92,779.328 618.5,783C 613.589,784.492 608.589,784.826 603.5,784C 600.316,783.246 597.649,781.746 595.5,779.5C 597.527,779.338 599.527,779.505 601.5,780C 601.957,780.414 602.291,780.914 602.5,781.5C 607.456,782.494 612.456,782.827 617.5,782.5C 617.746,779.53 619.412,778.197 622.5,778.5C 623.849,774.781 625.183,771.114 626.5,767.5 Z"/></g>
</svg>
